<?xml version="1.0" encoding="UTF-8"?>
<svg id="Calque_2" data-name="Calque 2" xmlns="http://www.w3.org/2000/svg" xmlns:xlink="http://www.w3.org/1999/xlink" viewBox="0 0 400 268.65">
  <defs>
    <style>
      .cls-1 {
        fill: url(#Dégradé_sans_nom_195);
      }

      .cls-2 {
        fill: #dbdbdb;
      }
    </style>
    <linearGradient id="Dégradé_sans_nom_195" data-name="Dégradé sans nom 195" x1="153.49" y1="134.33" x2="400" y2="134.33" gradientUnits="userSpaceOnUse">
      <stop offset="0" stop-color="#000"/>
      <stop offset=".55" stop-color="#ed6f53"/>
    </linearGradient>
  </defs>
  <g id="Logo_CC_couleurs" data-name="Logo CC couleurs">
    <g id="Logo_CC_couleurs-2" data-name="Logo CC couleurs">
      <g id="C_Ragnaroo_" data-name="C (Ragnaroo)">
        <path id="Masque_dégradé" data-name="Masque dégradé" class="cls-1" d="M157.02,166.67c-2.29-10.04-3.53-20.58-3.53-31.56v-.74c0-11.51,1.36-22.63,3.93-33.22,12.84-29.69,42.31-50.61,76.68-50.8,18.01-.1,34.73,5.52,48.48,15.12-4.59.42-8.99,1.34-13.15,2.73-10.54-5.57-22.55-8.71-35.28-8.64-41.25.23-74.62,33.99-74.39,75.24.24,41.25,33.99,74.62,75.24,74.39,12.58-.07,24.41-3.27,34.79-8.84,4.2,1.34,8.63,2.22,13.25,2.6-13.58,9.63-30.12,15.35-47.99,15.45-35.06.2-65.28-21.22-78.03-51.72ZM306.72,200.81c-17.82,19.34-43.28,31.54-71.59,31.7-20.76.12-40.05-6.27-55.99-17.22-6.07-8.24-11.22-17.26-15.26-26.97,2.49,3.25,5.2,6.35,8.16,9.28,16.89,16.7,39.28,25.82,63.03,25.69,20.67-.12,40.22-7.24,55.95-20.21,5.71-.2,10.91-.97,15.69-2.28h0ZM253.27,76.66c-6-1.95-12.39-3.03-19.04-2.99-33.47.19-60.54,27.57-60.35,61.04.19,33.47,27.57,60.54,61.04,60.35,6.48-.04,12.71-1.12,18.56-3.04,3.14,2.3,6.51,4.3,10.09,5.93-8.72,3.99-18.4,6.26-28.6,6.32-38.55.22-70.08-30.96-70.3-69.51-.22-38.55,30.96-70.08,69.51-70.3,10.37-.06,20.22,2.17,29.09,6.19-3.55,1.66-6.89,3.69-10,6.02ZM234.07,45.44c-23.75.14-46.03,9.51-62.73,26.41-2.34,2.37-4.51,4.85-6.55,7.43,4.15-9.54,9.36-18.46,15.53-26.62,15.4-10.26,33.85-16.31,53.7-16.42,28.61-.16,54.46,12,72.52,31.49-4.92-1.42-10.22-2.25-15.96-2.44-15.94-12.96-35.69-19.95-56.5-19.83h0ZM248.7,80.45c-2.62,2.4-5.04,5.05-7.24,7.9-2.34-.35-4.71-.58-7.14-.56-25.68.15-46.46,21.16-46.31,46.84.15,25.68,21.16,46.46,46.84,46.31,2.28-.01,4.51-.24,6.7-.58,2.22,2.86,4.66,5.48,7.3,7.87-4.46,1.18-9.12,1.89-13.95,1.92-30.76.18-55.93-24.71-56.11-55.47-.17-30.76,24.71-55.93,55.47-56.11,5-.03,9.82.67,14.44,1.88h0ZM235.21,246.62c-9.57.05-18.87-1.1-27.75-3.31-6.87-4.95-13.24-10.56-19-16.76,14.32,7.18,30.22,10.96,46.7,10.87,27.52-.16,53.34-11.02,72.69-30.6,2.99-3.02,5.74-6.21,8.3-9.52,7.1-3.34,13.34-8,19.26-13.68-18.18,37.07-56.19,62.76-100.2,63.01ZM307.02,61.09c-19.57-19.35-45.51-29.92-73.04-29.77-15.56.09-30.57,3.6-44.18,10.18,5.75-6.03,12.08-11.51,18.95-16.36,8.09-1.91,16.52-2.98,25.18-3.03,44.69-.26,83.5,25.78,101.77,63.56-5.95-5.9-12.36-10.77-19.57-14.28-2.79-3.6-5.81-7.05-9.1-10.3h0ZM238.25,92.87c-1.85,2.87-3.49,5.91-4.92,9.1-17.4.67-31.32,15.05-31.22,32.59.1,17.44,14.01,31.59,31.29,32.21,1.43,3.19,3.07,6.22,4.91,9.08-1.16.1-2.32.19-3.5.2-22.98.13-41.78-18.45-41.91-41.43-.13-22.98,18.46-41.78,41.43-41.91,1.32,0,2.62.06,3.91.18h0ZM231.27,107.03c-1.17,3.24-2.12,6.62-2.85,10.08-7.13,2.55-12.23,9.37-12.18,17.36.04,7.94,5.17,14.67,12.26,17.18.74,3.48,1.7,6.83,2.86,10.06-13.61-1.6-24.25-13.14-24.33-27.19-.08-14.13,10.54-25.85,24.25-27.5h0ZM353.53,177.06c-16.89,46.92-60.82,81.08-112.99,83.52-7.72-2.72-15.08-6.13-22.04-10.15,5.5.75,11.09,1.13,16.74,1.1,31.3-.18,60.65-12.53,82.65-34.79,12.41-12.55,21.64-27.4,27.3-43.58.36-.42.73-.83,1.09-1.26l7.25,5.16h0ZM316.95,51.05c-22.25-22-51.75-34.02-83.04-33.85-4.77.03-9.48.37-14.14.95,6.92-3.92,14.25-7.26,21.97-9.94,50.58,2.84,93.36,35.58,110.8,80.88l-7.58,5.87c-5.83-16.36-15.29-31.34-28.01-43.92h0ZM227.39,123.05c-.45,3.45-.69,6.98-.69,10.58v.74c0,3.88.27,7.68.77,11.37-3.77-2.36-6.31-6.52-6.34-11.29-.03-4.79,2.49-8.99,6.26-11.39h0ZM277.89,268.01c-8.49-.5-16.77-1.73-24.75-3.69,28.29-3.98,54.37-17,74.8-37.66,13.34-13.49,23.37-29.37,29.77-46.64l7.69,5.48c-15.28,38.94-47.44,69.49-87.51,82.51ZM356.63,85.93c-6.61-16.66-16.62-31.94-29.75-44.92-20.05-19.82-45.34-32.39-72.7-36.46,7.71-1.88,15.76-3.11,24.05-3.69,38.79,12.72,70.21,41.87,85.92,79.26l-7.51,5.82h0ZM336.8,30.97c-13.17-13.02-28.45-23.26-45.42-30.46,8.38.12,16.31.79,23.79,2,26.44,16.22,47.65,40.17,60.47,68.7l-7.44,5.76c-7.42-17.26-17.99-32.73-31.41-46ZM316.01,265.73c-7.56,1.38-15.72,2.16-24.39,2.41.11-.04.22-.08.32-.13,17.27-7.42,32.76-17.99,46.04-31.42,13.28-13.43,23.67-29.04,30.9-46.39.24-.57.44-1.16.67-1.74l7.7,5.48c-12.49,29.79-34.05,54.88-61.23,71.79ZM346.72,20.93c-5.77-5.7-11.92-10.9-18.39-15.62,9.09,2.38,17.48,5.58,25.18,9.5,13.77,13.7,25.18,29.77,33.6,47.53l-7.44,5.76c-8.04-17.6-19.09-33.47-32.94-47.17ZM381.35,196.88l7.62,5.42c-8.03,18.18-19.17,34.69-32.77,48.85-8,4.65-16.81,8.45-26.54,11.31,6.47-4.82,12.61-10.12,18.36-15.93,14.24-14.41,25.44-31.11,33.34-49.64h0ZM398.16,53.79l-7.03,5.44c-6.07-12.65-13.6-24.43-22.52-35.23,11.62,8.31,21.39,18.43,29.54,29.79h0ZM393.08,205.23l6.92,4.93c-8.11,11.01-17.08,21.03-27.44,29.57,8.16-10.65,15.02-22.19,20.52-34.49h0Z"/>
      </g>
      <path id="C_Montserrat_" data-name="C (Montserrat)" class="cls-2" d="M140.63,268.65c-20.04,0-38.65-3.28-55.85-9.83-17.2-6.55-32.1-15.89-44.71-28.02-12.62-12.12-22.45-26.35-29.5-42.67C3.53,171.8,0,153.87,0,134.33s3.53-37.48,10.58-53.81c7.05-16.33,16.94-30.55,29.69-42.67,12.74-12.12,27.7-21.46,44.9-28.02C102.35,3.28,120.97,0,141.01,0c22.51,0,42.92,3.9,61.23,11.69,18.3,7.79,33.64,19.24,46.01,34.32l-38.96,35.62c-8.66-10.14-18.5-17.81-29.5-23.01-11.01-5.2-22.95-7.79-35.81-7.79-12.12,0-23.26,2.04-33.4,6.12-10.15,4.08-18.92,9.83-26.35,17.25-7.42,7.42-13.17,16.2-17.25,26.35-4.08,10.15-6.12,21.4-6.12,33.77s2.04,23.63,6.12,33.77c4.08,10.15,9.83,18.92,17.25,26.35,7.42,7.42,16.2,13.17,26.35,17.26,10.14,4.08,21.27,6.12,33.4,6.12,12.86,0,24.8-2.65,35.81-7.98,11-5.32,20.84-13.05,29.5-23.19l38.96,35.62c-12.37,15.09-27.71,26.59-46.01,34.51-18.31,7.91-38.84,11.88-61.6,11.88Z"/>
    </g>
  </g>
</svg>